<svg width="28" height="28" viewBox="0 0 28 28" fill="none" xmlns="http://www.w3.org/2000/svg">
<path d="M21.7219 13.5957L20.9724 13.5681C20.9649 13.7717 21.0405 13.9695 21.1819 14.1162C21.3233 14.2629 21.5182 14.3457 21.7219 14.3457V13.5957ZM21.7268 13.5957H22.4768C22.4768 13.1815 22.141 12.8457 21.7268 12.8457V13.5957ZM21.7268 19.4316H20.9768C20.9768 19.7414 21.1673 20.0193 21.4563 20.1311L21.7268 19.4316ZM23.3191 20.0473H24.0691C24.0691 19.7374 23.8786 19.4595 23.5896 19.3477L23.3191 20.0473ZM23.3191 21.1623V21.9123C23.7334 21.9123 24.0691 21.5766 24.0691 21.1623H23.3191ZM5 21.1623H4.25C4.25 21.5766 4.58579 21.9123 5 21.9123V21.1623ZM5 20.0473L4.71294 19.3544C4.43271 19.4705 4.25 19.7439 4.25 20.0473H5ZM6.59359 19.3871L6.88065 20.08C7.16088 19.9639 7.34359 19.6904 7.34359 19.3871H6.59359ZM6.59359 13.5957V12.8457C6.17938 12.8457 5.84359 13.1815 5.84359 13.5957H6.59359ZM6.59847 13.5957V14.3457C6.80218 14.3457 6.99712 14.2629 7.13849 14.1162C7.27985 13.9695 7.35547 13.7717 7.34795 13.5681L6.59847 13.5957ZM13.4102 6.02914C13.4102 6.44335 13.746 6.77914 14.1602 6.77914C14.5744 6.77914 14.9102 6.44335 14.9102 6.02914H13.4102ZM14.9102 4C14.9102 3.58579 14.5744 3.25 14.1602 3.25C13.746 3.25 13.4102 3.58579 13.4102 4H14.9102ZM22.4714 13.6234C22.475 13.5264 22.4768 13.429 22.4768 13.3312H20.9768C20.9768 13.4105 20.9753 13.4895 20.9724 13.5681L22.4714 13.6234ZM21.7268 12.8457H21.7219V14.3457H21.7268V12.8457ZM22.4768 19.4316V13.5957H20.9768V19.4316H22.4768ZM21.4563 20.1311L23.0487 20.7468L23.5896 19.3477L21.9973 18.732L21.4563 20.1311ZM22.5691 20.0473V21.1623H24.0691V20.0473H22.5691ZM23.3191 20.4123H21.7268V21.9123H23.3191V20.4123ZM21.7268 20.4123H6.59359V21.9123H21.7268V20.4123ZM6.59359 20.4123H5V21.9123H6.59359V20.4123ZM5.75 21.1623V20.0473H4.25V21.1623H5.75ZM5.28706 20.7402L6.88065 20.08L6.30654 18.6942L4.71294 19.3544L5.28706 20.7402ZM5.84359 13.5957V19.3871H7.34359V13.5957H5.84359ZM6.59847 12.8457H6.59359V14.3457H6.59847V12.8457ZM5.84359 13.3312C5.84359 13.429 5.8454 13.5264 5.84898 13.6234L7.34795 13.5681C7.34505 13.4895 7.34359 13.4105 7.34359 13.3312H5.84359ZM14.1602 5.27914C9.59245 5.27914 5.84359 8.85922 5.84359 13.3312H7.34359C7.34359 9.73752 10.3701 6.77914 14.1602 6.77914V5.27914ZM22.4768 13.3312C22.4768 8.85922 18.7279 5.27914 14.1602 5.27914V6.77914C17.9503 6.77914 20.9768 9.73752 20.9768 13.3312H22.4768ZM14.9102 6.02914V4H13.4102V6.02914H14.9102Z" fill="currentColor"/>
<path d="M17.2128 21.883C17.2128 23.3283 15.8459 24.5 14.1596 24.5C12.4734 24.5 11.1064 23.3283 11.1064 21.883" stroke="currentColor" stroke-width="1.5" stroke-linecap="round" stroke-linejoin="round"/>
</svg>
