<svg width="18" height="10" viewBox="0 0 18 10" fill="none" xmlns="http://www.w3.org/2000/svg"><path d="M16.505 9.49498C16.7784 9.76834 17.2216 9.76834 17.495 9.49498C17.7683 9.22161 17.7683 8.77839 17.495 8.50503L16.505 9.49498ZM9 1L9.49497 0.505025C9.22161 0.231658 8.77839 0.231658 8.50502 0.505025L9 1ZM0.505026 8.50502C0.231659 8.77839 0.231659 9.22161 0.505025 9.49497C0.778392 9.76834 1.22161 9.76834 1.49497 9.49497L0.505026 8.50502ZM17.495 8.50503L9.49497 0.505025L8.50502 1.49497L16.505 9.49498L17.495 8.50503ZM8.50502 0.505025L0.505026 8.50502L1.49497 9.49497L9.49497 1.49497L8.50502 0.505025Z" fill="currentColor"/></svg>
